#N canvas 339 23 878 722 12;
#X obj 91 54 keyboard 17 80 5 2 0 0 empty empty;
#X obj 308 559 *~;
#X obj 308 588 sum~;
#X obj 308 650 out~;
#X obj 569 522 s \$0-rel;
#X obj 357 151 r \$0-rel;
#X obj 20 308 mod.vco~;
#A saved 12 12 0 0 1 0 4 -0.771429;
#X obj 162 284 *~;
#X obj 91 284 *~;
#X obj 91 25 keymap;
#X obj 257 230 mtof~;
#X obj 91 203 +~ 12.01;
#X obj 257 203 +~ 7.01;
#X obj 162 203 +~ 7.02;
#X obj 308 619 plate.rev~;
#X msg 363 591 wet \$1;
#X obj 366 565 hsl 162 19 0 1 0 0 empty empty empty -2 -10 0 12 #dfdfdf #000000 #000000 0 1;
#X obj 91 152 voices~ 4, f 34;
#X obj 91 230 sine~ -midi, f 5;
#X obj 162 230 sine~ -midi;
#X obj 594 489 send2~ \$0-env;
#X obj 180 254 r~ \$0-env;
#X obj 665 537 mod.preset;
#X obj 326 298 adsr.m~;
#A saved 10 20 0.5 50 0;
#X obj 257 259 imp~;
#X obj 594 298 adsr.m~;
#A saved 10 20 0.5 50 0;
#X connect 0 0 17 0;
#X connect 1 0 2 0;
#X connect 2 0 14 0;
#X connect 5 0 17 1;
#X connect 6 0 1 0;
#X connect 7 0 6 2;
#X connect 8 0 6 1;
#X connect 9 0 0 0;
#X connect 10 0 24 0;
#X connect 11 0 18 0;
#X connect 12 0 10 0;
#X connect 13 0 19 0;
#X connect 14 0 3 0;
#X connect 14 1 3 1;
#X connect 15 0 14 0;
#X connect 16 0 15 0;
#X connect 17 0 11 0;
#X connect 17 0 13 0;
#X connect 17 0 12 0;
#X connect 17 0 6 0;
#X connect 17 1 23 0;
#X connect 17 1 25 0;
#X connect 18 0 8 0;
#X connect 19 0 7 0;
#X connect 21 0 7 1;
#X connect 21 0 8 1;
#X connect 23 0 1 1;
#X connect 23 1 4 0;
#X connect 24 0 6 4;
#X connect 25 0 20 0;
