#N canvas 423 156 709 455 12;
#X declare -path else;
#X obj 299 54 inlet~;
#X obj 299 249 outlet~;
#N canvas 584 339 664 330 GUI 0;
#X obj 188 83 r \$0-decay-nbx;
#X msg 318 152 set \$1;
#X obj 318 111 r \$0-cutoff-nbx;
#X msg 188 114 set \$1;
#X obj 188 145 s \$0-set-decay;
#X obj 318 183 s \$0-set-cutoff;
#X connect 0 0 3 0;
#X connect 1 0 5 0;
#X connect 2 0 1 0;
#X connect 3 0 4 0;
#X restore 505 151 pd GUI;
#N canvas 286 77 330 402 (subpatch) 1;
#X obj 51 51 cnv 19 168 278 empty empty empty 20 12 0 12 #e0e0e0 #404040 0;
#X floatatom 73 173 6 -36 36 0 - \$0-bw \$0-bw-nbx 0;
#X obj 69 114 else/knob 50 0 2400 0 0 \$0-bw \$0-set-bw #dfdfdf #7c7c7c black 0 0 0 0 1 320 0 0 0;
#X obj 76 62 note 117 24 Inter empty 5 54 54 54 0 187 187 187 1 1 GENDYN;
#X text 82 191 BW;
#X obj 137 154 vradio 16 1 0 3 \$0-interp-nbx \$0-interp empty 0 -8 0 10 #dfdfdf #000000 #000000 0;
#X floatatom 137 108 4 0 128 0 - \$0-n \$0-n-nbx 0;
#X text 171 108 n;
#X floatatom 82 280 6 0 100 0 - \$0-fstep \$0-fstep-nbx 0;
#X obj 78 221 else/knob 50 0 100 0 0 \$0-fstep \$0-set-fstep #dfdfdf #7c7c7c black 0 0 0 0 1 320 0 0 0;
#X text 79 298 f-step;
#X floatatom 142 280 6 0 100 0 - \$0-astep \$0-astep-nbx 0;
#X obj 138 221 else/knob 50 0 100 0 0 \$0-astep \$0-set-astep #dfdfdf #7c7c7c black 0 0 0 0 1 320 0 0 0;
#X text 139 298 a-step;
#X text 157 154 none;
#X text 157 171 linear;
#X text 157 188 cosine;
#X text 136 130 (interp);
#X coords 0 1 100 -1 170 280 1 50 50;
#X restore 56 75 graph;
#N canvas 138 43 558 422 preset 0;
#X obj 121 133 else/sender 1 \\\$0-presets;
#X msg 121 98 name \$1;
#X obj 98 182 else/receiver;
#X obj 123 222 route list;
#N canvas 596 76 470 347 id-name-init 0;
#X obj 165 113 + 1;
#X obj 257 100 else/dollsym 1;
#X obj 141 80 value;
#X obj 141 252 outlet;
#X obj 141 51 else/loadbanger 2;
#X obj 141 201 else/dollsym 1;
#X obj 257 76 symbol pluck-id_\\\$0;
#X obj 141 166 else/format symbol \\\$0-pluck-%d;
#X connect 0 0 2 0;
#X connect 1 0 2 1;
#X connect 2 0 0 0;
#X connect 2 0 7 0;
#X connect 4 0 2 0;
#X connect 4 1 6 0;
#X connect 5 0 3 0;
#X connect 6 0 1 0;
#X connect 7 0 5 0;
#X restore 97 46 pd id-name-init;
#X obj 98 331 else/var \$0-decay \$0-cutoff, f 28;
#X obj 123 258 else/dispatch \$0-set-decay \$0-set-cutoff, f 41;
#X connect 1 0 0 0;
#X connect 2 0 3 0;
#X connect 2 0 5 0;
#X connect 3 0 6 0;
#X connect 4 0 1 0;
#X connect 4 0 2 0;
#X restore 563 151 pd preset;
#N canvas 618 163 522 329 init-savestate 0;
#X obj 110 106 savestate;
#X obj 300 195 declare -path else;
#X obj 85 67 loadbang;
#X obj 85 165 list;
#X obj 170 142 else/var \$0-decay \$0-cutoff;
#X obj 85 250 else/dispatch \$0-set-decay \$0-set-cutoff;
#X obj 85 205 else/default 500 10000;
#X connect 0 0 3 1;
#X connect 0 1 4 0;
#X connect 2 0 3 0;
#X connect 3 0 6 0;
#X connect 4 0 0 0;
#X connect 6 0 5 0;
#X restore 506 113 pd init-savestate;
#X text 313 33 HZ;
#N canvas 445 149 457 501 set 0;
#X obj 200 124 t b f;
#X msg 116 319 resize \$1;
#X obj 200 94 change 0;
#X obj 200 66 else/nchs~;
#X obj 200 28 inlet~;
#X obj 246 167 r \$0-decay;
#X obj 253 200 r \$0-cutoff;
#X obj 200 236 else/hot;
#X obj 200 265 unpack, f 9;
#X msg 200 319 all \$1;
#X msg 260 319 all \$1;
#X obj 116 396 outlet;
#X connect 0 0 7 0;
#X connect 0 1 1 0;
#X connect 1 0 11 0;
#X connect 2 0 0 0;
#X connect 3 0 2 0;
#X connect 4 0 3 0;
#X connect 5 0 7 0;
#X connect 6 0 7 1;
#X connect 7 0 8 0;
#X connect 8 0 9 0;
#X connect 8 1 10 0;
#X restore 332 133 pd set;
#X obj 299 197 clone -d gendyn.unit 1, f 25;
#X text 51 51 Pitch;
#X connect 0 0 7 0;
#X connect 0 0 8 0;
#X connect 7 0 8 0;
#X connect 8 0 1 0;
#X coords 0 -1 1 1 186 316 2 50 50;
