#N canvas 484 23 428 639 12;
#X obj 81 506 out~;
#X obj 81 86 bl.saw~ 110;
#X obj 81 141 mod.vca~;
#A saved 0;
#X obj 190 99 glide~ 50;
#X obj 190 75 pulse~ 5;
#X connect 1 0 2 0;
#X connect 2 0 0 0;
#X connect 3 0 2 1;
#X connect 4 0 3 0;
