#N canvas 435 25 606 683 12;
#X obj 392 233 plaits~;
#X text 353 176 This is just a wrapper around [plaits~] from ELSE \, check it out., f 22;
#N canvas 248 23 534 672 trigger-input 0;
#X obj 28 185 mod.plaits~;
#A saved 0 0.49 0.76 0.37 2 0.8 0.71;
#X obj 28 47 keyboard 17 80 4 3 0 0 empty empty;
#X obj 28 17 keymap;
#X obj 196 590 out~;
#X obj 28 146 voices~ 4, f 36;
#X connect 0 0 3 0;
#X connect 0 1 3 1;
#X connect 1 0 4 0;
#X connect 2 0 1 0;
#X connect 4 0 0 0;
#X connect 4 1 0 1;
#X restore 352 301 pd trigger-input;
#X obj 23 47 keyboard 17 80 4 3 0 0 empty empty;
#X obj 23 17 keymap;
#X obj 23 186 mod.plaits~;
#A saved 0 0.25 0.64 0.92 0 0 0.01;
#X obj 23 146 voices~ 4, f 33;
#X obj 23 576 out~;
#X obj 278 576 out~;
#X connect 3 0 6 0;
#X connect 4 0 3 0;
#X connect 5 0 7 0;
#X connect 5 1 8 0;
#X connect 6 0 5 0;
#X connect 6 1 5 2;
