#N canvas 422 25 654 679 12;
#X declare -path else;
#X obj 404 226 plaits~;
#X text 365 169 This is just a wrapper around [plaits~] from ELSE \, check it out., f 22;
#N canvas 729 54 534 672 trigger-input 0;
#X obj 28 47 keyboard 17 80 4 3 0 0 empty empty;
#X obj 28 17 keymap;
#X obj 196 590 out~;
#X obj 28 185 plaits.m~;
#A saved 0 0.5215 0.18 0.34 12 0.51 0.51;
#X text 323 229 You can use the mid inlet for setting it into trigger mode. More details on trigger and Level in the help file of [plaits~]. Know that both inputs may work together in some engines., f 21;
#X obj 28 146 mono~ 10, f 18;
#X connect 0 0 5 0;
#X connect 1 0 0 0;
#X connect 3 0 2 0;
#X connect 3 1 2 1;
#X connect 5 0 3 0;
#X connect 5 2 3 1;
#X restore 412 420 pd trigger-input;
#X obj 32 56 keyboard 17 80 4 3 0 0 empty empty;
#X obj 32 26 keymap;
#X obj 32 155 voices~ 4, f 33;
#X obj 32 585 out~;
#X obj 287 585 out~;
#X obj 32 195 plaits.m~;
#A saved 0 0.3 0.59 0.64 1 0.5 0.49;
#X text 345 274 Note that the [plaits~] object itself is still experimental., f 30;
#X obj 467 487 about;
#X text 407 487 see -->;
#X obj 491 20 declare -path else;
#X text 340 354 This example connects to the level input \, enabling level mode. For trigger mode \, see below., f 28;
#X connect 3 0 5 0;
#X connect 4 0 3 0;
#X connect 5 0 8 0;
#X connect 5 1 8 2;
#X connect 8 0 6 0;
#X connect 8 1 7 0;
