#N canvas 219 23 571 377 12;
#X obj 130 206 adsr~, f 37;
#X msg 130 150 gate \$1;
#X obj 130 123 / 127;
#X obj 130 87 inlet;
#X obj 196 87 inlet;
#X obj 259 87 inlet;
#X obj 323 87 inlet;
#X obj 400 87 inlet;
#X obj 130 282 outlet~;
#X obj 50 87 inlet~;
#X connect 0 0 8 0;
#X connect 1 0 0 0;
#X connect 2 0 1 0;
#X connect 3 0 2 0;
#X connect 4 0 0 1;
#X connect 5 0 0 2;
#X connect 6 0 0 3;
#X connect 7 0 0 4;
#X connect 9 0 0 0;
