#N canvas 499 58 485 569 12;
#X obj 120 477 out~;
#X obj 120 191 mod.lowpass~;
#A saved 130.596 14.8679 0 0;
#X text 71 34 This Lowpass module takes a single channel input \, cutoff in Hz and Reson in Q., f 42;
#X obj 196 104 tgl 19 0 empty empty empty 0 -10 0 12 #dfdfdf #000000 #000000 0 127;
#X obj 196 136 adsr~ 500 500 0.5 500;
#X obj 97 139 bl.saw~ 55;
#X connect 1 0 0 0;
#X connect 3 0 4 0;
#X connect 4 0 1 1;
#X connect 5 0 1 0;
