#N canvas 325 39 675 654 12;
#X obj 65 320 *~;
#X obj 65 539 out~;
#X obj 65 258 bl.saw~ 111;
#X text 49 24 This ADSR envelope module takes a signal gate input in the left inlet and floats to set attack attack \, decay \, sustain and release. You can set the values via knobs or number boxes. You can also use the MIDI learn button to get values from a connected MIDI Controller. This module has a save stating mechanism \, which means it loads the values from the last time it was saved in a patch., f 83;
#X text 235 516 This is just a wrapper around [adsr~] from ELSE \, check its help file, f 38;
#X obj 467 540 adsr~, f 7;
#X text 105 142 Signal Gate;
#X obj 196 207 sig~;
#X obj 196 135 tgl 33 0 empty empty empty 0 -10 0 12 #dfdfdf #000000 #000000 0 1;
#X floatatom 196 178 4 0 0 0 - - - 0;
#X obj 196 246 mod.adsr~;
#A saved 10 20 0.5 50;
#A saved;
#A saved;
#A saved;
#A saved;
#N canvas 506 77 703 621 multichannel 0;
#X obj 86 309 *~;
#X obj 86 485 out.mc~;
#X obj 86 240 osc.mc~ 444 888;
#X text 128 110 Signal Gate;
#X obj 219 175 sig~;
#X obj 219 103 tgl 33 0 empty empty empty 0 -10 0 12 #dfdfdf #000000 #000000 0 1;
#X floatatom 219 146 4 0 0 0 - - - 0;
#X obj 219 212 mod.adsr~;
#A saved 10 20 0.5 50;
#A saved;
#A saved;
#A saved;
#A saved;
#X floatatom 279 174 7 0 0 0 - - - 0;
#X text 277 153 attack;
#X floatatom 340 174 7 0 0 0 - - - 0;
#X floatatom 401 174 7 0 0 0 - - - 0;
#X floatatom 462 174 7 0 0 0 - - - 0;
#X text 341 153 decay;
#X text 399 153 sustain;
#X text 460 153 release;
#X connect 0 0 1 0;
#X connect 2 0 0 0;
#X connect 4 0 7 0;
#X connect 5 0 6 0;
#X connect 6 0 4 0;
#X connect 7 0 0 1;
#X connect 8 0 7 1;
#X connect 10 0 7 2;
#X connect 11 0 7 3;
#X connect 12 0 7 4;
#X restore 488 319 pd multichannel;
#X obj 196 571 s2f~;
#X listbox 196 595 20 0 0 0 - - - 0;
#X floatatom 256 207 7 0 0 0 - - - 0;
#X text 254 187 attack;
#X floatatom 317 207 7 0 0 0 - - - 0;
#X floatatom 378 207 7 0 0 0 - - - 0;
#X floatatom 439 207 7 0 0 0 - - - 0;
#X text 318 187 decay;
#X text 376 187 sustain;
#X text 437 187 release;
#X connect 0 0 1 0;
#X connect 2 0 0 0;
#X connect 7 0 10 0;
#X connect 8 0 9 0;
#X connect 9 0 7 0;
#X connect 10 0 12 0;
#X connect 10 0 0 1;
#X connect 12 0 13 0;
#X connect 14 0 10 1;
#X connect 16 0 10 2;
#X connect 17 0 10 3;
#X connect 18 0 10 4;
