#N canvas 673 186 867 651 12;
#X declare -path else;
#N canvas 101 74 630 440 (subpatch) 0;
#X obj 112 112 cnv 15 260 235 empty empty empty 20 12 0 14 #dbdbdb #373737 0;
#X obj 186 116 note 101 24 Inter empty 5 54 54 54 0 187 187 187 1 1 PLAITS;
#X obj 290 181 else/knob 50 0 1 0 0.5 \$0-harmonics \$0-set-harmonics #dfdfdf #7c7c7c black 0 0 0 0 1 320 0 0 0.5;
#X text 284 161 Harmonics;
#X obj 139 259 else/knob 50 0 1 0 0.5 \$0-timbre \$0-set-timbre #dfdfdf #7c7c7c black 0 0 0 0 1 320 0 0 0.5;
#X text 140 239 Timbre;
#X obj 289 259 else/knob 50 0 1 0 0.5 \$0-morph \$0-set-morph #dfdfdf #7c7c7c black 0 0 0 0 1 320 0 0 0.5;
#X text 294 239 Morph;
#X obj 138 181 else/knob 50 -24 24 0 0 \$0-freq \$0-set-freq #dfdfdf #7c7c7c black 0 0 0 0 1 320 0 0 0;
#X text 131 161 Frequency;
#X obj 213 171 vradio 18 1 0 8 \$0-radio-1 \$0-set-radio-1 empty 0 -8 0 10 #dfdfdf #dfdfdf #000000 0;
#X obj 231 171 vradio 18 1 0 8 \$0-radio-2 \$0-set-radio-2 empty 0 -8 0 10 #dfdfdf #dfdfdf #000000 0;
#X obj 249 171 vradio 18 1 0 8 \$0-radio-3 \$0-set-radio-3 empty 0 -8 0 10 #dfdfdf #f4560a #000000 0;
#X listbox 135 321 31 0 0 0 - \$0-label fjdkhkfsdhfk 0;
#X coords 0 1 100 -1 262 237 1 111 111;
#X restore 258 176 graph;
#X obj 29 35 inlet~;
#X obj 29 531 outlet~;
#X obj 274 35 inlet;
#X obj 418 35 inlet;
#X obj 541 35 inlet;
#N canvas 243 43 627 453 preset 0;
#X obj 125 121 else/sender 1 \\\$0-presets;
#X msg 125 86 name \$1;
#X obj 90 171 else/receiver;
#X obj 123 220 route list;
#N canvas 596 76 491 352 id-name-init 0;
#X obj 165 113 + 1;
#X obj 257 100 else/dollsym 1;
#X obj 141 80 value;
#X obj 141 252 outlet;
#X obj 141 51 else/loadbanger 2;
#X obj 141 201 else/dollsym 1;
#X obj 257 76 symbol plaits-id_\\\$0;
#X obj 141 166 else/format symbol \\\$0-plaits-%d;
#X connect 0 0 2 0;
#X connect 1 0 2 1;
#X connect 2 0 0 0;
#X connect 2 0 7 0;
#X connect 4 0 2 0;
#X connect 4 1 6 0;
#X connect 5 0 3 0;
#X connect 6 0 1 0;
#X connect 7 0 5 0;
#X restore 90 39 pd id-name-init;
#X obj 123 257 else/dispatch \$0-set-freq \$0-set-harmonics \$0-set-timbre \$0-set-morph \$0-set-model, f 43;
#X obj 90 311 else/var \$0-freq \$0-harmonics \$0-timbre \$0-morph \$0-model;
#X connect 1 0 0 0;
#X connect 2 0 3 0;
#X connect 2 0 6 0;
#X connect 3 0 5 0;
#X connect 4 0 1 0;
#X connect 4 0 2 0;
#X restore 662 238 pd preset;
#N canvas 158 281 575 328 init-savestate 0;
#X obj 74 87 savestate;
#X obj 282 171 declare -path else;
#X obj 49 125 list;
#X obj 49 43 loadbang;
#X obj 49 222 else/dispatch \$0-set-freq \$0-set-harmonics \$0-set-timbre \$0-set-morph \$0-set-model, f 42;
#X obj 49 171 else/default 0 0 0 0 0;
#X obj 134 119 else/var \$0-freq \$0-harmonics \$0-timbre \$0-morph \$0-model;
#X connect 0 0 2 1;
#X connect 0 1 6 0;
#X connect 2 0 5 0;
#X connect 3 0 2 0;
#X connect 5 0 4 0;
#X connect 6 0 0 0;
#X restore 604 205 pd init-savestate;
#X obj 143 531 outlet~;
#N canvas 278 205 477 348 LPG 0;
#X obj 166 282 outlet;
#X obj 166 143 bng 35 250 50 0 empty empty empty 0 -8 0 10 #dfdfdf #000000 #000000;
#X msg 293 206 decay \$1;
#X obj 88 149 tgl 30 0 empty empty empty 0 -8 0 10 #dfdfdf #000000 #000000 0 1;
#X msg 222 206 cutoff \$1;
#X msg 88 197 trigger \$1;
#X text 59 17 Use the 'trigger' message to set in and out of 'trigger' mode. Alternatively \, the '-trigger' flag sets to trigger mode at load time. In this mode you have to send bangs to trigger a built in LPG (LowPass Gate). The LPG has a cutoff setting and a decay parameter. This mode is useful for percussive sounds but note that for modes 12-15 that the cutoff and decay settings are disabled., f 62;
#X obj 222 136 else/knob 50 0 1 0 0.5 \$0-cutoff \$0-set-cutoff #dfdfdf #7c7c7c black 1 0 0 0 1 320 0 0 0;
#X obj 293 136 else/knob 50 0 1 0 0.5 \$0-decay \$0-set-decay #dfdfdf #7c7c7c black 1 0 0 0 1 320 0 0 0;
#X text 226 115 Cutoff;
#X text 302 115 Decay;
#X connect 1 0 0 0;
#X connect 2 0 0 0;
#X connect 3 0 5 0;
#X connect 4 0 0 0;
#X connect 5 0 0 0;
#X connect 7 0 4 0;
#X connect 8 0 2 0;
#X restore 232 538 pd LPG;
#X text 279 537 <-- open for trigger mode and LPG (LowPass Gate settings);
#N canvas 147 124 643 559 GUI 0;
#X msg 333 57 harmonics \$1;
#X msg 361 108 timbre \$1;
#X msg 379 160 morph \$1;
#X obj 332 36 r \$0-harmonics;
#X obj 361 86 r \$0-timbre;
#X obj 379 139 r \$0-morph;
#N canvas 181 203 498 298 radio-1 0;
#X obj 90 43 r \$0-radio-1;
#X msg 117 127 color #dfdfdf #dfdfdf #000000;
#X obj 90 71 t f b;
#X obj 125 153 s \$0-set-radio-2;
#X obj 132 95 s \$0-set-radio-1;
#X obj 90 204 outlet;
#X obj 117 176 s \$0-set-radio-3;
#X msg 214 23 color #dfdfdf #00ff00 #000000;
#X msg 132 71 color #dfdfdf #00b1a5 #000000;
#X connect 0 0 2 0;
#X connect 1 0 3 0;
#X connect 1 0 6 0;
#X connect 2 0 5 0;
#X connect 2 1 1 0;
#X connect 2 1 8 0;
#X connect 8 0 4 0;
#X restore 54 60 pd radio-1;
#N canvas 202 189 450 300 radio-2 0;
#X obj 85 98 t f b;
#X obj 85 231 outlet;
#X obj 85 40 r \$0-radio-2;
#X obj 127 122 s \$0-set-radio-2;
#X obj 85 68 + 8;
#X msg 112 154 color #dfdfdf #dfdfdf #000000;
#X obj 123 178 s \$0-set-radio-1;
#X obj 112 199 s \$0-set-radio-3;
#X msg 127 98 color #dfdfdf #ff518d #000000;
#X connect 0 0 1 0;
#X connect 0 1 5 0;
#X connect 0 1 8 0;
#X connect 2 0 4 0;
#X connect 4 0 0 0;
#X connect 5 0 6 0;
#X connect 5 0 7 0;
#X connect 8 0 3 0;
#X restore 140 60 pd radio-2;
#N canvas 202 189 450 300 radio-3 0;
#X obj 85 98 t f b;
#X obj 85 231 outlet;
#X obj 112 207 s \$0-set-radio-1;
#X msg 112 154 color #dfdfdf #dfdfdf #000000;
#X obj 85 40 r \$0-radio-3;
#X obj 85 68 + 16;
#X obj 130 182 s \$0-set-radio-2;
#X obj 127 122 s \$0-set-radio-3;
#X msg 127 98 color #dfdfdf #f4560a #000000;
#X connect 0 0 1 0;
#X connect 0 1 3 0;
#X connect 0 1 8 0;
#X connect 3 0 2 0;
#X connect 3 0 6 0;
#X connect 4 0 5 0;
#X connect 5 0 0 0;
#X connect 8 0 7 0;
#X restore 182 95 pd radio-3;
#X obj 182 192 s \$0-to-plaits;
#X obj 354 221 s \$0-to-plaits;
#X msg 182 158 model \$1;
#X obj 55 171 s \$0-model;
#X obj 301 331 else/spread 8 16;
#X obj 152 418 symbol2any;
#X obj 152 485 s \$0-label;
#X obj 152 256 r \$0-name;
#X obj 152 290 route 0;
#X obj 152 324 route name;
#X obj 152 388 symbol;
#X obj 355 420 s \$0-set-radio-2;
#X obj 410 387 s \$0-set-radio-3;
#X obj 336 452 s \$0-set-radio-1;
#X obj 91 329 bng 19 250 50 0 empty empty empty 0 -10 0 12 #fcfcfc #000000 #000000;
#X obj 152 451 list;
#X obj 301 284 r \$0-set-model;
#X obj 355 361 - 8;
#X obj 410 359 - 16;
#X connect 0 0 10 0;
#X connect 1 0 10 0;
#X connect 2 0 10 0;
#X connect 3 0 0 0;
#X connect 4 0 1 0;
#X connect 5 0 2 0;
#X connect 6 0 11 0;
#X connect 6 0 12 0;
#X connect 7 0 11 0;
#X connect 7 0 12 0;
#X connect 8 0 11 0;
#X connect 8 0 12 0;
#X connect 11 0 9 0;
#X connect 13 0 22 0;
#X connect 13 1 26 0;
#X connect 13 2 27 0;
#X connect 14 0 24 0;
#X connect 16 0 17 0;
#X connect 17 0 18 0;
#X connect 18 0 19 0;
#X connect 19 0 14 0;
#X connect 23 0 19 0;
#X connect 24 0 15 0;
#X connect 25 0 13 0;
#X connect 26 0 20 0;
#X connect 27 0 21 0;
#X restore 603 238 pd GUI;
#N canvas 206 189 450 300 set 0;
#X obj 83 72 r \$0-to-plaits;
#X obj 83 96 else/insert all;
#X obj 83 120 outlet;
#X connect 0 0 1 0;
#X connect 1 0 2 0;
#X restore 67 405 pd set;
#X text 250 153 CV;
#X text 339 153 H;
#X text 430 153 T;
#X text 519 153 M;
#X obj 29 475 clone -d plaits.unit 1, f 33;
#X obj 75 156 else/nchs~;
#X obj 75 180 change;
#X msg 75 204 resize \$1;
#X obj 280 481 s \$0-name;
#X obj 86 100 r \$0-freq;
#X obj 274 86 s \$0-set-harmonics;
#X obj 418 86 s \$0-set-timbre;
#X obj 541 86 s \$0-set-morph;
#X obj 31 155 +~;
#X connect 1 0 18 0;
#X connect 1 0 26 0;
#X connect 3 0 23 0;
#X connect 4 0 24 0;
#X connect 5 0 25 0;
#X connect 12 0 17 0;
#X connect 17 0 2 0;
#X connect 17 1 8 0;
#X connect 17 2 21 0;
#X connect 18 0 19 0;
#X connect 19 0 20 0;
#X connect 20 0 17 0;
#X connect 22 0 26 1;
#X connect 26 0 17 0;
#X coords 0 1 100 -1 280 274 2 250 150;
