#N canvas 282 80 895 654 12;
#X obj 31 21 keyboard 17 80 4 2 0 0 empty empty;
#X obj 178 545 out~;
#X obj 281 121 else/adsr~ 250 50 0.85 1000;
#X text 510 243 Set modulation index int the matrix. The gray diagonal row represents each oscillator and the index value in this row is for self feedback modulation. The bottom left number boxes are for feedforwad modulation and the top right half is for feedback., f 48;
#X obj 31 136 voices~ 4;
#X text 510 403 The left inlet is for pitch in MIDI \, the other inlets are for Level inputs of each oscillator and the rightmost if for the master level. If nothing is connected \, the level is set to 1 for all secondary inleys but you can connect signals from envelopes and what not., f 48;
#X obj 31 190 mod.op6~;
#A saved idx 0 0 0 0 0 0 0 0 0 0 0 0 0 0 0 0 0 0 0 0 0 0 0 0 0 0 0 0 0 0 0 0 0 0 0 0 \; vol 0 0 0 0 0 0 \; ratio 0 0 0 0 0 0 \; detune 0 0 0 0 0 0 \; pan 0 0 0 0 0 0 \; transp 0 \;;
#X text 510 205 A Six Sinusoidal Operators FM (phase modulation) a la DX7 with stereo output!, f 48;
#X text 510 337 Set ratio for each oscillator \, output level of each and their panning for a stereo output. Level and index values are from 0-100. There's also a pitch transposition knob., f 48;
#X connect 0 0 4 0;
#X connect 2 0 6 1;
#X connect 2 0 6 2;
#X connect 2 0 6 4;
#X connect 2 0 6 7;
#X connect 4 0 6 0;
#X connect 4 1 2 0;
#X connect 6 0 1 0;
#X connect 6 1 1 1;
