#N canvas 449 86 722 660 12;
#X declare -path else;
#X obj 334 86 s \$0-set-decay;
#X obj 213 86 s \$0-set-attack;
#X obj 451 86 s \$0-set-sustain;
#X obj 584 86 s \$0-set-release;
#N canvas 296 81 557 530 initand-savestate 0;
#X obj 162 191 savestate;
#X obj 247 36 r \$0-attack;
#X obj 288 71 r \$0-decay;
#X obj 329 115 r \$0-sustain;
#X obj 370 157 r \$0-release;
#X obj 222 231 list;
#X obj 162 367 unpack f f f f;
#X obj 212 455 s \$0-set-decay;
#X obj 190 478 s \$0-set-attack;
#X obj 234 429 s \$0-set-sustain;
#X obj 257 406 s \$0-set-release;
#X obj 334 255 declare -path else;
#X obj 162 259 list trim;
#X obj 162 283 route list;
#X obj 61 154 else/loadbanger -init;
#X obj 162 320 else/default 10 20 0.5 50;
#X obj 247 195 else/pack2 0 0 0 0;
#X connect 0 0 12 0;
#X connect 0 1 5 0;
#X connect 1 0 16 0;
#X connect 2 0 16 1;
#X connect 3 0 16 2;
#X connect 4 0 16 3;
#X connect 5 0 0 0;
#X connect 6 0 8 0;
#X connect 6 1 7 0;
#X connect 6 2 9 0;
#X connect 6 3 10 0;
#X connect 12 0 13 0;
#X connect 13 0 15 0;
#X connect 14 0 15 0;
#X connect 15 0 6 0;
#X connect 16 0 5 1;
#X restore 458 190 pd initand-savestate;
#X msg 104 110 all \$1;
#X obj 150 466 r \$0-attack;
#X obj 240 466 r \$0-decay;
#X obj 324 466 r \$0-sustain;
#X obj 332 530 r \$0-release;
#X msg 150 495 all \$1;
#X msg 240 495 all \$1;
#X msg 324 495 all \$1;
#X msg 347 577 all \$1;
#X msg 58 350 resize \$1;
#X obj 58 281 nchs~;
#X obj 58 305 change;
#X obj 59 545 clone -d mod.adsr.unit 1, f 33;
#N canvas 101 74 602 382 (subpatch) 0;
#X obj 112 112 cnv 15 234 202 empty empty empty 20 12 0 14 #dbdbdb #373737 0;
#X obj 176 155 knob 50 0 2000 2 0 \$0-decay \$0-set-decay #e4e4e4 #a8a8a8 #4d4d4d 0 0 0 0 1 270 0 0;
#X obj 233 155 knob 50 0 1 0 0 \$0-sustain \$0-set-sustain #e4e4e4 #a8a8a8 #4d4d4d 0 0 0 0 1 270 0 0;
#X obj 186 116 note 101 24 Inter empty 5 54 54 54 0 187 187 187 1 1 ADSR;
#X obj 119 155 knob 50 0 2000 2 0 \$0-attack \$0-set-attack #e4e4e4 #a8a8a8 #4d4d4d 0 0 0 0 1 270 0 0;
#X obj 232 231 note 51 10 Inter empty 5 55 55 55 0 223 223 223 1 1 Sustain;
#X obj 290 155 knob 50 0 2000 2 0 \$0-release \$0-set-release #e4e4e4 #a8a8a8 #4d4d4d 0 0 0 0 1 270 0 0;
#X obj 289 231 note 51 10 Inter empty 5 55 55 55 0 223 223 223 1 2 Release;
#X obj 118 231 note 51 10 Inter empty 5 55 55 55 0 223 223 223 1 1 Attack;
#X obj 175 231 note 50 10 Inter empty 5 55 55 55 0 223 223 223 1 1 Decay;
#X obj 134 251 bng 19 250 50 0 \$0-learn-attack \$0-dummy empty 0 -10 0 12 #dfdfdf #000000 #000000;
#X obj 191 251 bng 19 250 50 0 \$0-learn-decay \$0-dummy empty 0 -10 0 12 #dfdfdf #000000 #000000;
#X obj 248 251 bng 19 250 50 0 \$0-learn-sustain \$0-dummy empty 0 -10 0 12 #dfdfdf #000000 #000000;
#X obj 305 251 bng 19 250 50 0 \$0-learn-release \$0-dummy empty 0 -10 0 12 #dfdfdf #000000 #000000;
#X floatatom 119 209 7 0 0 0 - \$0-attack \$0-attack-number 0;
#X floatatom 176 209 7 0 0 0 - \$0-decay \$0-decay-number 0;
#X floatatom 233 209 7 0 0 0 - \$0-sustain \$0-sustain-number 0;
#X floatatom 290 209 7 0 0 0 - \$0-release \$0-release-number 0;
#X text 137 270 |------ MIDI learn ------|;
#X obj 261 290 bng 18 250 50 0 \$0-forget \$0-dummy empty 0 -10 0 12 #dfdfdf #000000 #000000;
#X text 183 290 forget all;
#X text 312 283 |;
#X text 137 283 |;
#X text 137 296 |;
#X text 312 296 |;
#X coords 0 1 100 -1 236 204 1 111 111;
#X restore 156 175 graph;
#N canvas 255 81 513 328 set 0;
#X obj 126 91 r \$0-attack-number;
#X msg 126 115 set \$1;
#X msg 295 114 set \$1;
#X msg 124 196 set \$1;
#X msg 293 195 set \$1;
#X obj 295 90 r \$0-decay-number;
#X obj 124 172 r \$0-sustain-number;
#X obj 293 171 r \$0-release-number;
#X obj 124 220 s \$0-set-sustain;
#X obj 293 219 s \$0-set-release;
#X obj 295 138 s \$0-set-decay;
#X obj 126 139 s \$0-set-attack;
#X connect 0 0 1 0;
#X connect 1 0 11 0;
#X connect 2 0 10 0;
#X connect 3 0 8 0;
#X connect 4 0 9 0;
#X connect 5 0 2 0;
#X connect 6 0 3 0;
#X connect 7 0 4 0;
#X restore 507 264 pd set;
#X obj 332 621 outlet;
#N canvas 255 81 812 600 midi-learn 0;
#X obj 80 54 r \$0-learn-attack;
#X obj 436 86 r \$0-learn-decay;
#X obj 449 405 r \$0-learn-sustain;
#X obj 113 356 r \$0-learn-release;
#X obj 80 272 s \$0-attack;
#X obj 507 241 s \$0-decay;
#X obj 449 527 / 127;
#X obj 449 555 s \$0-sustain;
#X obj 113 476 s \$0-release;
#X obj 232 88 route l1;
#X obj 234 179 list prepend l1;
#X obj 232 37 savestate;
#X obj 232 61 list trim;
#X obj 312 104 list;
#X obj 589 8 savestate;
#X obj 589 32 list trim;
#X obj 669 75 list;
#X obj 605 185 list prepend l2;
#X obj 589 59 route l2;
#X obj 287 266 savestate;
#X obj 287 290 list trim;
#X obj 367 333 list;
#X obj 289 408 list prepend l3;
#X obj 287 317 route l3;
#X obj 612 311 savestate;
#X obj 612 335 list trim;
#X obj 692 378 list;
#X obj 614 453 list prepend l4;
#X obj 612 362 route l4;
#X obj 395 178 r \$0-forget;
#X msg 395 202 forget;
#X obj 80 210 else/midi.learn;
#A saved;
#X obj 80 246 else/rescale -exp 2 0 2000;
#X obj 232 137 else/insert teach;
#X obj 589 108 else/insert teach;
#X obj 507 148 else/midi.learn;
#A saved;
#X obj 507 215 else/rescale -exp 2 0 2000;
#X obj 612 411 else/insert teach;
#X obj 449 500 else/midi.learn;
#A saved;
#X obj 113 450 else/rescale -exp 2 0 2000;
#X obj 113 424 else/midi.learn;
#A saved;
#X obj 287 366 else/insert teach;
#X connect 0 0 31 0;
#X connect 1 0 35 0;
#X connect 2 0 38 0;
#X connect 3 0 40 0;
#X connect 6 0 7 0;
#X connect 9 0 33 0;
#X connect 10 0 13 1;
#X connect 11 0 12 0;
#X connect 11 1 13 0;
#X connect 12 0 9 0;
#X connect 13 0 11 0;
#X connect 14 0 15 0;
#X connect 14 1 16 0;
#X connect 15 0 18 0;
#X connect 16 0 14 0;
#X connect 17 0 16 1;
#X connect 18 0 34 0;
#X connect 19 0 20 0;
#X connect 19 1 21 0;
#X connect 20 0 23 0;
#X connect 21 0 19 0;
#X connect 22 0 21 1;
#X connect 23 0 41 0;
#X connect 24 0 25 0;
#X connect 24 1 26 0;
#X connect 25 0 28 0;
#X connect 26 0 24 0;
#X connect 27 0 26 1;
#X connect 28 0 37 0;
#X connect 29 0 30 0;
#X connect 30 0 31 0;
#X connect 30 0 35 0;
#X connect 30 0 38 0;
#X connect 30 0 40 0;
#X connect 31 0 32 0;
#X connect 31 1 10 0;
#X connect 32 0 4 0;
#X connect 33 0 31 0;
#X connect 34 0 35 0;
#X connect 35 0 36 0;
#X connect 35 1 17 0;
#X connect 36 0 5 0;
#X connect 37 0 38 0;
#X connect 38 0 6 0;
#X connect 38 1 27 0;
#X connect 39 0 8 0;
#X connect 40 0 39 0;
#X connect 40 1 22 0;
#X connect 41 0 40 0;
#X restore 479 225 pd midi-learn;
#X obj 19 36 inlet~;
#X obj 104 81 route gate;
#X obj 59 621 outlet~;
#X obj 213 36 inlet;
#X obj 334 36 inlet;
#X obj 451 36 inlet;
#X obj 584 36 inlet;
#X text 150 153 Gate;
#X text 208 153 A;
#X text 270 153 D;
#X text 331 153 S;
#X text 388 153 R;
#X connect 5 0 17 1;
#X connect 6 0 10 0;
#X connect 7 0 11 0;
#X connect 8 0 12 0;
#X connect 9 0 13 0;
#X connect 9 0 20 0;
#X connect 10 0 17 2;
#X connect 11 0 17 3;
#X connect 12 0 17 4;
#X connect 13 0 17 5;
#X connect 14 0 17 0;
#X connect 15 0 16 0;
#X connect 16 0 14 0;
#X connect 17 0 24 0;
#X connect 22 0 17 0;
#X connect 22 0 15 0;
#X connect 22 1 23 0;
#X connect 23 0 5 0;
#X connect 25 0 1 0;
#X connect 26 0 0 0;
#X connect 27 0 2 0;
#X connect 28 0 3 0;
#X coords 0 1 100 -1 250 247 2 150 150;
